<?xml version="1.0" encoding="UTF-8"?>
<svg xmlns="http://www.w3.org/2000/svg" xmlns:xlink="http://www.w3.org/1999/xlink" viewBox="0 0 183.86 183.61">
  <defs>
    <style>
      .cls-1 {
        fill: url(#New_Gradient_Swatch_copy_11);
      }

      .cls-1, .cls-2, .cls-3 {
        mix-blend-mode: multiply;
      }

      .cls-4 {
        fill: url(#linear-gradient-2);
      }

      .cls-5 {
        fill: url(#linear-gradient);
      }

      .cls-6 {
        fill: #3aa6dd;
        font-family: Montserrat-Medium, Montserrat;
        font-size: 9.88px;
        font-weight: 500;
      }

      .cls-7 {
        isolation: isolate;
      }

      .cls-8 {
        letter-spacing: .36em;
      }

      .cls-9 {
        letter-spacing: .39em;
      }

      .cls-10 {
        letter-spacing: .4em;
      }

      .cls-11 {
        letter-spacing: .4em;
      }

      .cls-12 {
        fill: #313a3d;
        font-family: Montserrat-Bold, Montserrat;
        font-size: 22.91px;
        font-weight: 700;
      }

      .cls-2 {
        fill: url(#New_Gradient_Swatch_copy_11-2);
      }

      .cls-3 {
        fill: url(#New_Gradient_Swatch_copy_11-3);
      }
    </style>
    <linearGradient id="linear-gradient" x1="39.29" y1="169.77" x2="57.36" y2="86.56" gradientTransform="translate(7.1 -8.06) rotate(-15.7)" gradientUnits="userSpaceOnUse">
      <stop offset="0" stop-color="#32373b"/>
      <stop offset="1" stop-color="#5f6469"/>
    </linearGradient>
    <linearGradient id="New_Gradient_Swatch_copy_11" data-name="New Gradient Swatch copy 11" x1="63.59" y1="151.89" x2="154.71" y2="40.98" gradientUnits="userSpaceOnUse">
      <stop offset="0" stop-color="#7b728c"/>
      <stop offset="1" stop-color="#e1d9ff" stop-opacity="0"/>
    </linearGradient>
    <linearGradient id="linear-gradient-2" x1="61.41" y1="191.13" x2="56.51" y2="23.54" gradientTransform="translate(7.1 -8.06) rotate(-15.7)" gradientUnits="userSpaceOnUse">
      <stop offset="0" stop-color="#00acbf"/>
      <stop offset="1" stop-color="#88d4e7"/>
    </linearGradient>
    <linearGradient id="New_Gradient_Swatch_copy_11-2" data-name="New Gradient Swatch copy 11" x1="41.68" y1="179.38" x2="117.06" y2="87.64" gradientTransform="translate(7.1 -8.06) rotate(-15.7)" xlink:href="#New_Gradient_Swatch_copy_11"/>
    <linearGradient id="New_Gradient_Swatch_copy_11-3" data-name="New Gradient Swatch copy 11" x1="32.24" y1="156.24" x2="133.98" y2="32.4" gradientTransform="translate(7.1 -8.06) rotate(-15.7)" xlink:href="#New_Gradient_Swatch_copy_11"/>
  </defs>
  <g class="cls-7">
    <g id="Layer_2">
      <g id="OBJECTS">
        <g>
          <g>
            <text class="cls-12" transform="translate(23.16 165.74)"><tspan x="0" y="0">MUSE RADIO</tspan></text>
            <text class="cls-6" transform="translate(0 181.02)"><tspan class="cls-11" x="0" y="0">MUSIC TH</tspan><tspan class="cls-8" x="81.71" y="0">A</tspan><tspan class="cls-11" x="92.55" y="0">T INS</tspan><tspan class="cls-9" x="138" y="0">P</tspan><tspan class="cls-10" x="148.99" y="0">IRES</tspan></text>
          </g>
          <g>
            <path class="cls-5" d="M147.23,135.14l-7.91.84c-3.12.34-6.19-.05-9.02-1.04-5.34-1.87-9.81-5.89-12.17-11.31l-2.37-5.47-21.38-49.38-5.31,56.03-20.13-37.56c-.77,30.45-24.56,29.16-38.11,6.03,4.23,5.32,18.74,13.84,27.1,8.84.12-.06.23-.12.33-.2.26-.16.5-.34.74-.53.01,0,.02-.02.03-.02,3.46-2.85,5.62-9.28,4.92-20.67-1.35-21.58-.83-30.57-.83-30.57l24.61,50.62c0-.08,0-.17,0-.27l3.63-67.45,36.74,67.14,12.04,21.99,7.1,12.98Z"/>
            <path class="cls-1" d="M140.13,122.17l-12.04-21.99-36.74-67.14-3.63,67.45c0,.1,0,.18,0,.27-.26,4.94-2.06,6.88-4.25,2.89-2.17-3.98-14.54-26.55-14.54-26.55v10.15s20.14,37.56,20.14,37.56l5.31-56.03,21.38,49.38,2.37,5.47c2.36,5.43,6.83,9.44,12.17,11.31,2.83.99,5.9,1.38,9.02,1.04l7.91-.84-7.1-12.98Z"/>
            <path class="cls-4" d="M150.85,97.91c-2,9.58-1.19,12.81.37,21.57l-5.33-8.09-14.2-21.59-6.81-10.36,7.86,5.6c.09-.46.17-.92.25-1.39,1.67-10.39.41-22.34-3.41-33.51-8.66-25.32-30.43-46.66-60.87-36.95-2.25.7-4.55,1.58-6.9,2.66-35.8,16.29-36.86,55.08-23.59,75.98.67,1.06,1.4,2.08,2.17,3.03-7.03-1.85-13.02-7.73-15.05-14.5l-.08-.28c-4.71-17.19-1-35.96,8.6-50.62C45.47,11.71,67.49-.2,93.66,0c21.58.17,43.09,15.8,52.94,36.48,8.63,18.12,10.06,40.15,4.25,61.43Z"/>
            <path class="cls-2" d="M147.23,135.14l-7.91.84c-3.12.34-6.19-.05-9.02-1.04-5.34-1.87-9.81-5.89-12.17-11.31l-2.37-5.47-21.38-49.38,1.36-14.33c33.4,65.94,32.83,79.79,51.5,80.69Z"/>
            <path class="cls-3" d="M151.22,119.48l-5.33-8.09-14.2-21.59-6.81-10.36,7.86,5.6c.09-.46.17-.92.25-1.39,1.67-10.39.41-22.34-3.41-33.51-8.66-25.32-30.43-46.66-60.87-36.95h0c26.55-9.15,53.48-1.61,65.98,23.1,19.22,38.01-.83,51.25,16.54,83.19Z"/>
          </g>
        </g>
      </g>
    </g>
  </g>
</svg>