<?xml version="1.0" encoding="UTF-8"?>
<svg xmlns="http://www.w3.org/2000/svg" xmlns:xlink="http://www.w3.org/1999/xlink" viewBox="0 0 251.55 64.91">
  <defs>
    <style>
      .cls-1 {
        fill: url(#New_Gradient_Swatch_copy_11);
      }

      .cls-1, .cls-2, .cls-3 {
        mix-blend-mode: multiply;
      }

      .cls-4 {
        fill: url(#linear-gradient-2);
      }

      .cls-5 {
        fill: url(#linear-gradient);
      }

      .cls-6 {
        fill: #3aa6dd;
        font-family: Montserrat-Medium, Montserrat;
        font-size: 9.88px;
        font-weight: 500;
      }

      .cls-7 {
        isolation: isolate;
      }

      .cls-8 {
        letter-spacing: .36em;
      }

      .cls-9 {
        letter-spacing: .39em;
      }

      .cls-10 {
        letter-spacing: .4em;
      }

      .cls-11 {
        letter-spacing: .4em;
      }

      .cls-12 {
        fill: #313a3d;
        font-family: Montserrat-Bold, Montserrat;
        font-size: 22.91px;
        font-weight: 700;
      }

      .cls-2 {
        fill: url(#New_Gradient_Swatch_copy_11-2);
      }

      .cls-3 {
        fill: url(#New_Gradient_Swatch_copy_11-3);
      }
    </style>
    <linearGradient id="linear-gradient" x1="-46.17" y1="343.91" x2="-37.8" y2="305.37" gradientTransform="translate(-17.29 -276.53) rotate(-15.7)" gradientUnits="userSpaceOnUse">
      <stop offset="0" stop-color="#32373b"/>
      <stop offset="1" stop-color="#5f6469"/>
    </linearGradient>
    <linearGradient id="New_Gradient_Swatch_copy_11" data-name="New Gradient Swatch copy 11" x1="18.7" y1="70.36" x2="60.9" y2="18.98" gradientUnits="userSpaceOnUse">
      <stop offset="0" stop-color="#7b728c"/>
      <stop offset="1" stop-color="#e1d9ff" stop-opacity="0"/>
    </linearGradient>
    <linearGradient id="linear-gradient-2" x1="-35.92" y1="353.81" x2="-38.19" y2="276.18" gradientTransform="translate(-17.29 -276.53) rotate(-15.7)" gradientUnits="userSpaceOnUse">
      <stop offset="0" stop-color="#00acbf"/>
      <stop offset="1" stop-color="#88d4e7"/>
    </linearGradient>
    <linearGradient id="New_Gradient_Swatch_copy_11-2" data-name="New Gradient Swatch copy 11" x1="-45.06" y1="348.37" x2="-10.14" y2="305.87" gradientTransform="translate(-17.29 -276.53) rotate(-15.7)" xlink:href="#New_Gradient_Swatch_copy_11"/>
    <linearGradient id="New_Gradient_Swatch_copy_11-3" data-name="New Gradient Swatch copy 11" x1="-49.43" y1="337.65" x2="-2.3" y2="280.28" gradientTransform="translate(-17.29 -276.53) rotate(-15.7)" xlink:href="#New_Gradient_Swatch_copy_11"/>
  </defs>
  <g class="cls-7">
    <g id="Layer_2">
      <g id="OBJECTS">
        <g>
          <g>
            <text class="cls-12" transform="translate(65.79 47.31)"><tspan x="0" y="0">MUSE RADIO</tspan></text>
            <text class="cls-6" transform="translate(67.69 62.31)"><tspan class="cls-11" x="0" y="0">MUSIC TH</tspan><tspan class="cls-8" x="81.71" y="0">A</tspan><tspan class="cls-11" x="92.55" y="0">T INS</tspan><tspan class="cls-9" x="138" y="0">P</tspan><tspan class="cls-10" x="148.99" y="0">IRES</tspan></text>
          </g>
          <g>
            <path class="cls-5" d="M57.44,62.6l-3.66.39c-1.45.16-2.87-.02-4.18-.48-2.47-.87-4.55-2.73-5.64-5.24l-1.1-2.53-9.91-22.87-2.46,25.96-9.32-17.4c-.36,14.1-11.38,13.51-17.65,2.8,1.96,2.46,8.68,6.41,12.55,4.09.06-.03.11-.06.15-.09.12-.07.23-.16.34-.24,0,0,.01,0,.02-.01,1.6-1.32,2.6-4.3,2.28-9.57-.62-10-.39-14.16-.39-14.16l11.4,23.45s0-.08,0-.12l1.68-31.25,17.02,31.1,5.58,10.19,3.29,6.01Z"/>
            <path class="cls-1" d="M54.15,56.59l-5.58-10.19L31.56,15.3l-1.68,31.25s0,.08,0,.12c-.12,2.29-.96,3.19-1.97,1.34-1.01-1.84-6.73-12.3-6.73-12.3v4.7s9.33,17.4,9.33,17.4l2.46-25.96,9.91,22.87,1.1,2.53c1.09,2.51,3.16,4.37,5.64,5.24,1.31.46,2.73.64,4.18.48l3.66-.39-3.29-6.01Z"/>
            <path class="cls-4" d="M59.12,45.35c-.93,4.44-.55,5.93.17,9.99l-2.47-3.75-6.58-10-3.16-4.8,3.64,2.6c.04-.21.08-.43.11-.64.77-4.81.19-10.35-1.58-15.52C45.26,11.5,35.17,1.61,21.07,6.11c-1.04.32-2.11.73-3.2,1.23C1.29,14.89.8,32.85,6.95,42.53c.31.49.65.96,1,1.4-3.26-.86-6.03-3.58-6.97-6.72l-.04-.13c-2.18-7.96-.46-16.66,3.98-23.45C10.3,5.43,20.5-.09,32.62,0c10,.08,19.96,7.32,24.52,16.9,4,8.39,4.66,18.6,1.97,28.45Z"/>
            <path class="cls-2" d="M57.44,62.6l-3.66.39c-1.45.16-2.87-.02-4.18-.48-2.47-.87-4.55-2.73-5.64-5.24l-1.1-2.53-9.91-22.87.63-6.64c15.47,30.54,15.21,36.96,23.85,37.38Z"/>
            <path class="cls-3" d="M59.29,55.34l-2.47-3.75-6.58-10-3.16-4.8,3.64,2.6c.04-.21.08-.43.11-.64.77-4.81.19-10.35-1.58-15.52C45.26,11.5,35.17,1.61,21.07,6.11h0c12.3-4.24,24.77-.75,30.56,10.7,8.9,17.61-.38,23.74,7.66,38.54Z"/>
          </g>
        </g>
      </g>
    </g>
  </g>
</svg>