<?xml version="1.0" encoding="UTF-8"?>
<svg xmlns="http://www.w3.org/2000/svg" xmlns:xlink="http://www.w3.org/1999/xlink" viewBox="0 0 131.12 136.1">
  <defs>
    <style>
      .cls-1 {
        fill: url(#New_Gradient_Swatch_copy_11);
      }

      .cls-1, .cls-2, .cls-3 {
        mix-blend-mode: multiply;
      }

      .cls-4 {
        fill: url(#linear-gradient-2);
      }

      .cls-5 {
        fill: url(#linear-gradient);
      }

      .cls-6 {
        isolation: isolate;
      }

      .cls-2 {
        fill: url(#New_Gradient_Swatch_copy_11-2);
      }

      .cls-3 {
        fill: url(#New_Gradient_Swatch_copy_11-3);
      }
    </style>
    <linearGradient id="linear-gradient" x1="-3.35" y1="310.48" x2="14.73" y2="227.27" gradientTransform="translate(-13.16 -155.06) rotate(-15.7)" gradientUnits="userSpaceOnUse">
      <stop offset="0" stop-color="#32373b"/>
      <stop offset="1" stop-color="#5f6469"/>
    </linearGradient>
    <linearGradient id="New_Gradient_Swatch_copy_11" data-name="New Gradient Swatch copy 11" x1="40.36" y1="151.89" x2="131.48" y2="40.98" gradientUnits="userSpaceOnUse">
      <stop offset="0" stop-color="#7b728c"/>
      <stop offset="1" stop-color="#e1d9ff" stop-opacity="0"/>
    </linearGradient>
    <linearGradient id="linear-gradient-2" x1="18.78" y1="331.84" x2="13.87" y2="164.25" gradientTransform="translate(-13.16 -155.06) rotate(-15.7)" gradientUnits="userSpaceOnUse">
      <stop offset="0" stop-color="#00acbf"/>
      <stop offset="1" stop-color="#88d4e7"/>
    </linearGradient>
    <linearGradient id="New_Gradient_Swatch_copy_11-2" data-name="New Gradient Swatch copy 11" x1="-.95" y1="320.09" x2="74.42" y2="228.35" gradientTransform="translate(-13.16 -155.06) rotate(-15.7)" xlink:href="#New_Gradient_Swatch_copy_11"/>
    <linearGradient id="New_Gradient_Swatch_copy_11-3" data-name="New Gradient Swatch copy 11" x1="-10.4" y1="296.95" x2="91.35" y2="173.1" gradientTransform="translate(-13.16 -155.06) rotate(-15.7)" xlink:href="#New_Gradient_Swatch_copy_11"/>
  </defs>
  <g class="cls-6">
    <g id="Layer_2">
      <g id="OBJECTS">
        <g>
          <path class="cls-5" d="M124,135.14l-7.91.84c-3.12.34-6.19-.05-9.02-1.04-5.34-1.87-9.81-5.89-12.17-11.31l-2.37-5.47-21.38-49.38-5.31,56.03-20.13-37.56c-.77,30.45-24.56,29.16-38.11,6.03,4.23,5.32,18.74,13.84,27.1,8.84.12-.06.23-.12.33-.2.26-.16.5-.34.74-.53.01,0,.02-.02.03-.02,3.46-2.85,5.62-9.28,4.92-20.67-1.35-21.58-.83-30.57-.83-30.57l24.61,50.62c0-.08,0-.17,0-.27l3.63-67.45,36.74,67.14,12.04,21.99,7.1,12.98Z"/>
          <path class="cls-1" d="M116.9,122.17l-12.04-21.99-36.74-67.14-3.63,67.45c0,.1,0,.18,0,.27-.26,4.94-2.06,6.88-4.25,2.89-2.17-3.98-14.54-26.55-14.54-26.55v10.15s20.14,37.56,20.14,37.56l5.31-56.03,21.38,49.38,2.37,5.47c2.36,5.43,6.83,9.44,12.17,11.31,2.83.99,5.9,1.38,9.02,1.04l7.91-.84-7.1-12.98Z"/>
          <path class="cls-4" d="M127.62,97.91c-2,9.58-1.19,12.81.37,21.57l-5.33-8.09-14.2-21.59-6.81-10.36,7.86,5.6c.09-.46.17-.92.25-1.39,1.67-10.39.41-22.34-3.41-33.51C97.7,24.82,75.93,3.48,45.48,13.19c-2.25.7-4.55,1.58-6.9,2.66C2.79,32.14,1.73,70.92,15,91.82c.67,1.06,1.4,2.08,2.17,3.03-7.03-1.85-13.02-7.73-15.05-14.5l-.08-.28C-2.67,62.88,1.03,44.11,10.63,29.45,22.24,11.71,44.26-.2,70.43,0c21.58.17,43.09,15.8,52.94,36.48,8.63,18.12,10.06,40.15,4.25,61.43Z"/>
          <path class="cls-2" d="M124,135.14l-7.91.84c-3.12.34-6.19-.05-9.02-1.04-5.34-1.87-9.81-5.89-12.17-11.31l-2.37-5.47-21.38-49.38,1.36-14.33c33.4,65.94,32.83,79.79,51.5,80.69Z"/>
          <path class="cls-3" d="M127.99,119.48l-5.33-8.09-14.2-21.59-6.81-10.36,7.86,5.6c.09-.46.17-.92.25-1.39,1.67-10.39.41-22.34-3.41-33.51C97.7,24.82,75.93,3.48,45.48,13.19h0c26.55-9.15,53.48-1.61,65.98,23.1,19.22,38.01-.83,51.25,16.54,83.19Z"/>
        </g>
      </g>
    </g>
  </g>
</svg>